<?xml version="1.0" standalone="no"?>
<!DOCTYPE svg PUBLIC "-//W3C//DTD SVG 20010904//EN"
 "http://www.w3.org/TR/2001/REC-SVG-20010904/DTD/svg10.dtd">
<svg version="1.0" xmlns="http://www.w3.org/2000/svg"
 width="260.000000pt" height="260.000000pt" viewBox="0 0 260.000000 260.000000"
 preserveAspectRatio="xMidYMid meet">
<metadata>
Created by potrace 1.14, written by Peter Selinger 2001-2017
</metadata>
<g transform="translate(0.000000,260.000000) scale(0.100000,-0.100000)"
fill="#000000" stroke="none">
<path d="M1177 2493 c-148 -141 -252 -239 -537 -508 -244 -229 -360 -340 -553
-523 -48 -46 -87 -89 -87 -96 0 -7 9 -25 21 -40 l20 -26 190 0 189 0 0 -628
c0 -552 2 -630 16 -650 l15 -22 853 0 854 0 17 27 c17 25 18 67 14 642 l-4
616 181 10 c203 11 217 16 212 74 -3 37 -23 57 -569 571 -84 80 -164 155 -177
168 -13 13 -99 94 -191 180 -91 86 -200 189 -241 229 -49 48 -83 73 -98 73
-17 0 -55 -30 -125 -97z m187 -120 c118 -110 402 -379 506 -478 322 -307 458
-435 480 -454 l25 -20 -136 -1 c-120 0 -140 -2 -160 -19 l-24 -19 4 -631 4
-631 -757 0 -756 0 0 628 c0 552 -2 630 -16 650 -14 21 -22 22 -150 22 -74 0
-134 4 -134 8 0 11 143 148 625 602 137 129 288 272 335 317 47 46 87 83 89
83 2 0 32 -26 65 -57z"/>
<path d="M1492 1608 c-32 -16 -37 -52 -18 -127 36 -145 49 -399 26 -521 -20
-107 -60 -207 -100 -253 -97 -110 -322 -143 -441 -65 -80 54 -105 189 -59 313
50 132 211 345 328 435 20 16 34 37 38 57 6 29 1 38 -34 73 -58 58 -86 56
-248 -26 -153 -77 -211 -90 -248 -55 -28 26 -41 16 -51 -42 -10 -52 17 -123
55 -142 63 -32 107 -16 211 80 38 35 84 74 102 87 l32 23 -17 -27 c-125 -193
-219 -379 -244 -483 -46 -196 28 -362 194 -437 198 -90 438 -7 535 185 61 119
67 221 26 456 -26 154 -24 162 16 53 52 -144 152 -327 198 -364 34 -27 82 -23
106 8 43 55 22 120 -64 196 -116 104 -172 228 -184 406 -8 114 -17 140 -62
166 -31 18 -64 20 -97 4z"/>
</g>
</svg>
